<svg xmlns="http://www.w3.org/2000/svg" viewBox="0 0 48 48" width="48" height="48">
  <path fill="#4f46e5" d="M24 4C12.954 4 4 12.954 4 24s8.954 20 20 20 20-8.954 20-20S35.046 4 24 4z"/>
  <path fill="#ffffff" d="M32 18v12c0 1.1-.9 2-2 2H18c-1.1 0-2-.9-2-2V18c0-1.1.9-2 2-2h12c1.1 0 2 .9 2 2z"/>
  <path fill="#4f46e5" d="M30 18l-12 8v4h12c.55 0 1-.45 1-1V18c0-.55-.45-1-1-1h-12v1l12 8V18z"/>
  <circle cx="24" cy="24" r="8" fill="none" stroke="#ffffff" stroke-width="2" stroke-dasharray="2,2">
    <animate attributeName="r" values="6;8;6" dur="3s" repeatCount="indefinite"/>
    <animate attributeName="stroke-dasharray" values="1,3;3,1;1,3" dur="3s" repeatCount="indefinite"/>
  </circle>
</svg>